<mxfile host="Electron" modified="2023-08-12T16:08:22.288Z" agent="Mozilla/5.0 (Windows NT 10.0; Win64; x64) AppleWebKit/537.36 (KHTML, like Gecko) draw.io/21.6.5 Chrome/114.0.5735.243 Electron/25.3.1 Safari/537.36" etag="-4-VeNX8KR5leAynpQx2" version="21.6.5" type="device">
  <diagram id="R2lEEEUBdFMjLlhIrx00" name="Page-1">
    <mxGraphModel dx="1834" dy="1236" grid="1" gridSize="10" guides="1" tooltips="1" connect="1" arrows="1" fold="1" page="0" pageScale="1" pageWidth="850" pageHeight="1100" math="0" shadow="0" extFonts="Permanent Marker^https://fonts.googleapis.com/css?family=Permanent+Marker">
      <root>
        <mxCell id="0" />
        <mxCell id="1" parent="0" />
        <mxCell id="Md97ql7bqrQIhvEubVTs-1" value="&lt;span style=&quot;font-size: 18px;&quot;&gt;景点&lt;/span&gt;" style="whiteSpace=wrap;html=1;align=center;" vertex="1" parent="1">
          <mxGeometry x="20" y="90" width="100" height="40" as="geometry" />
        </mxCell>
        <mxCell id="Md97ql7bqrQIhvEubVTs-12" style="rounded=0;orthogonalLoop=1;jettySize=auto;html=1;entryX=0;entryY=0.25;entryDx=0;entryDy=0;" edge="1" parent="1" source="Md97ql7bqrQIhvEubVTs-2" target="Md97ql7bqrQIhvEubVTs-1">
          <mxGeometry relative="1" as="geometry" />
        </mxCell>
        <mxCell id="Md97ql7bqrQIhvEubVTs-2" value="&lt;span style=&quot;border-bottom: 1px dotted&quot;&gt;&lt;font style=&quot;font-size: 18px;&quot;&gt;iD&lt;/font&gt;&lt;/span&gt;" style="ellipse;whiteSpace=wrap;html=1;align=center;" vertex="1" parent="1">
          <mxGeometry x="-140" width="100" height="40" as="geometry" />
        </mxCell>
        <mxCell id="Md97ql7bqrQIhvEubVTs-9" style="rounded=0;orthogonalLoop=1;jettySize=auto;html=1;exitX=0.5;exitY=1;exitDx=0;exitDy=0;entryX=0.1;entryY=0;entryDx=0;entryDy=0;entryPerimeter=0;" edge="1" parent="1" source="Md97ql7bqrQIhvEubVTs-3" target="Md97ql7bqrQIhvEubVTs-1">
          <mxGeometry relative="1" as="geometry" />
        </mxCell>
        <mxCell id="Md97ql7bqrQIhvEubVTs-3" value="&lt;span style=&quot;font-size: 18px;&quot;&gt;图片地址&lt;/span&gt;" style="ellipse;whiteSpace=wrap;html=1;align=center;" vertex="1" parent="1">
          <mxGeometry x="-40" y="-40" width="100" height="40" as="geometry" />
        </mxCell>
        <mxCell id="Md97ql7bqrQIhvEubVTs-10" style="rounded=0;orthogonalLoop=1;jettySize=auto;html=1;exitX=0.5;exitY=1;exitDx=0;exitDy=0;entryX=0.5;entryY=0;entryDx=0;entryDy=0;" edge="1" parent="1" source="Md97ql7bqrQIhvEubVTs-4" target="Md97ql7bqrQIhvEubVTs-1">
          <mxGeometry relative="1" as="geometry" />
        </mxCell>
        <mxCell id="Md97ql7bqrQIhvEubVTs-4" value="&lt;span style=&quot;border-bottom: 1px dotted&quot;&gt;&lt;font style=&quot;font-size: 18px;&quot;&gt;地址&lt;/font&gt;&lt;/span&gt;" style="ellipse;whiteSpace=wrap;html=1;align=center;" vertex="1" parent="1">
          <mxGeometry x="80" y="-50" width="100" height="40" as="geometry" />
        </mxCell>
        <mxCell id="Md97ql7bqrQIhvEubVTs-11" style="rounded=0;orthogonalLoop=1;jettySize=auto;html=1;exitX=0;exitY=1;exitDx=0;exitDy=0;entryX=1;entryY=0.5;entryDx=0;entryDy=0;" edge="1" parent="1" source="Md97ql7bqrQIhvEubVTs-5" target="Md97ql7bqrQIhvEubVTs-1">
          <mxGeometry relative="1" as="geometry" />
        </mxCell>
        <mxCell id="Md97ql7bqrQIhvEubVTs-5" value="&lt;span style=&quot;font-size: 18px;&quot;&gt;创建者&lt;/span&gt;" style="ellipse;whiteSpace=wrap;html=1;align=center;" vertex="1" parent="1">
          <mxGeometry x="180" y="-20" width="100" height="40" as="geometry" />
        </mxCell>
        <mxCell id="Md97ql7bqrQIhvEubVTs-13" style="rounded=0;orthogonalLoop=1;jettySize=auto;html=1;entryX=0;entryY=0.75;entryDx=0;entryDy=0;" edge="1" parent="1" source="Md97ql7bqrQIhvEubVTs-6" target="Md97ql7bqrQIhvEubVTs-1">
          <mxGeometry relative="1" as="geometry" />
        </mxCell>
        <mxCell id="Md97ql7bqrQIhvEubVTs-6" value="&lt;span style=&quot;border-bottom: 1px dotted&quot;&gt;&lt;font style=&quot;font-size: 18px;&quot;&gt;创建时间&lt;/font&gt;&lt;/span&gt;" style="ellipse;whiteSpace=wrap;html=1;align=center;" vertex="1" parent="1">
          <mxGeometry x="-160" y="150" width="100" height="40" as="geometry" />
        </mxCell>
        <mxCell id="Md97ql7bqrQIhvEubVTs-15" style="rounded=0;orthogonalLoop=1;jettySize=auto;html=1;" edge="1" parent="1" source="Md97ql7bqrQIhvEubVTs-7" target="Md97ql7bqrQIhvEubVTs-1">
          <mxGeometry relative="1" as="geometry">
            <mxPoint x="60" y="133" as="targetPoint" />
          </mxGeometry>
        </mxCell>
        <mxCell id="Md97ql7bqrQIhvEubVTs-7" value="&lt;span style=&quot;border-bottom: 1px dotted&quot;&gt;&lt;font style=&quot;font-size: 18px;&quot;&gt;更新时间&lt;/font&gt;&lt;/span&gt;" style="ellipse;whiteSpace=wrap;html=1;align=center;" vertex="1" parent="1">
          <mxGeometry x="-170" y="80" width="100" height="40" as="geometry" />
        </mxCell>
        <mxCell id="Md97ql7bqrQIhvEubVTs-19" value="&lt;font style=&quot;font-size: 18px;&quot;&gt;景点分类&lt;/font&gt;" style="whiteSpace=wrap;html=1;align=center;" vertex="1" parent="1">
          <mxGeometry x="420" y="100" width="100" height="40" as="geometry" />
        </mxCell>
        <mxCell id="Md97ql7bqrQIhvEubVTs-21" value="&lt;font style=&quot;font-size: 18px;&quot;&gt;路线&lt;/font&gt;" style="whiteSpace=wrap;html=1;align=center;" vertex="1" parent="1">
          <mxGeometry x="-90" y="350" width="100" height="40" as="geometry" />
        </mxCell>
        <mxCell id="Md97ql7bqrQIhvEubVTs-23" value="" style="endArrow=none;html=1;rounded=0;exitX=1;exitY=0.75;exitDx=0;exitDy=0;entryX=0;entryY=0.5;entryDx=0;entryDy=0;" edge="1" parent="1" source="Md97ql7bqrQIhvEubVTs-1" target="Md97ql7bqrQIhvEubVTs-19">
          <mxGeometry relative="1" as="geometry">
            <mxPoint x="150" y="119.5" as="sourcePoint" />
            <mxPoint x="310" y="119.5" as="targetPoint" />
          </mxGeometry>
        </mxCell>
        <mxCell id="Md97ql7bqrQIhvEubVTs-24" value="N" style="resizable=0;html=1;whiteSpace=wrap;align=right;verticalAlign=bottom;" connectable="0" vertex="1" parent="Md97ql7bqrQIhvEubVTs-23">
          <mxGeometry x="1" relative="1" as="geometry" />
        </mxCell>
        <mxCell id="Md97ql7bqrQIhvEubVTs-25" value="" style="endArrow=none;html=1;rounded=0;exitX=0.25;exitY=1;exitDx=0;exitDy=0;entryX=0.5;entryY=0;entryDx=0;entryDy=0;" edge="1" parent="1" source="Md97ql7bqrQIhvEubVTs-1" target="Md97ql7bqrQIhvEubVTs-21">
          <mxGeometry relative="1" as="geometry">
            <mxPoint x="180" y="230" as="sourcePoint" />
            <mxPoint x="340" y="230" as="targetPoint" />
          </mxGeometry>
        </mxCell>
        <mxCell id="Md97ql7bqrQIhvEubVTs-26" value="N" style="resizable=0;html=1;whiteSpace=wrap;align=right;verticalAlign=bottom;" connectable="0" vertex="1" parent="Md97ql7bqrQIhvEubVTs-25">
          <mxGeometry x="1" relative="1" as="geometry" />
        </mxCell>
        <mxCell id="Md97ql7bqrQIhvEubVTs-27" value="&lt;font style=&quot;font-size: 18px;&quot;&gt;提示&lt;/font&gt;" style="whiteSpace=wrap;html=1;align=center;" vertex="1" parent="1">
          <mxGeometry x="340" y="340" width="100" height="40" as="geometry" />
        </mxCell>
        <mxCell id="Md97ql7bqrQIhvEubVTs-28" value="" style="endArrow=none;html=1;rounded=0;exitX=0.75;exitY=1;exitDx=0;exitDy=0;" edge="1" parent="1" source="Md97ql7bqrQIhvEubVTs-1" target="Md97ql7bqrQIhvEubVTs-27">
          <mxGeometry relative="1" as="geometry">
            <mxPoint x="70" y="140" as="sourcePoint" />
            <mxPoint x="340" y="220" as="targetPoint" />
          </mxGeometry>
        </mxCell>
        <mxCell id="Md97ql7bqrQIhvEubVTs-29" value="N" style="resizable=0;html=1;whiteSpace=wrap;align=right;verticalAlign=bottom;" connectable="0" vertex="1" parent="Md97ql7bqrQIhvEubVTs-28">
          <mxGeometry x="1" relative="1" as="geometry" />
        </mxCell>
        <mxCell id="Md97ql7bqrQIhvEubVTs-30" value="&lt;span style=&quot;border-bottom: 1px dotted&quot;&gt;ID&lt;/span&gt;" style="ellipse;whiteSpace=wrap;html=1;align=center;" vertex="1" parent="1">
          <mxGeometry x="400" width="100" height="40" as="geometry" />
        </mxCell>
      </root>
    </mxGraphModel>
  </diagram>
</mxfile>
